<svg xmlns="http://www.w3.org/2000/svg" xmlns:svg="http://www.w3.org/2000/svg" id="svg6" aria-hidden="true" class="icon" focusable="false" version="1.1" viewBox="0 0 24 24"><metadata id="metadata12"/><path id="path2" fill="none" d="M 1e-7,0 H 24 V 24 H 1e-7 Z"/><path id="path2753" d="M 12 4 A 8 8 0 0 0 5.34375 7.5625 L 7.0078125 8.671875 A 6 6 0 0 1 12 6 L 12 4 z M 16.4375 5.34375 L 15.328125 7.0078125 A 6 6 0 0 1 18 12 L 20 12 A 8 8 0 0 0 16.4375 5.34375 z M 4 12 A 8 8 0 0 0 7.5625 18.65625 L 8.671875 16.992188 A 6 6 0 0 1 6 12 L 4 12 z M 16.992188 15.328125 A 6 6 0 0 1 12 18 L 12 20 A 8 8 0 0 0 18.65625 16.4375 L 16.992188 15.328125 z"/><path id="path2804" d="M 12,4 V 2 l 3,3 -3,3 z"/><path id="path2814" d="m 12,18 v -2 l -3,3 3,3 z"/><path id="path2816" d="M 6,12 H 8 L 5,9 2,12 Z"/><path id="path2818" d="m 19.671286,12 h 2 l -3,3 -3,-3 z"/></svg>