<svg xmlns="http://www.w3.org/2000/svg" xmlns:svg="http://www.w3.org/2000/svg" id="svg3069" width="178" height="178" version="1.1" viewBox="0 0 178 178"><g id="layer1"><g id="g2997" transform="translate(-33.85,-30.075)"><g id="g2989"><path id="path2979" d="m 61.62,122.32 c 0,-33.82 27.41,-61.23 61.23,-61.23 33.82,0 61.23,27.41 61.23,61.23 z" class="f" style="fill:#ff8c14"/><path id="path2981" d="m 168.55,122.32 c 0,25.24 -20.46,45.71 -45.71,45.71 -25.24,0 -45.71,-20.46 -45.71,-45.71 z" class="e" style="fill:#fff"/><circle id="circle2983" cx="143.58" cy="82.78" r="3.37" class="g" style="fill:#8c3c00"/><circle id="circle2985" cx="159.98" cy="97.84" r="3.37" class="g" style="fill:#8c3c00"/><circle id="circle2987" cx="141.43" cy="101.52" r="3.37" class="g" style="fill:#8c3c00"/></g><path id="path2991" d="m 93.15,175.84 -10.88,25.97 14.32,6 10.97,-26.19 c 4.89,1.26 10.01,1.93 15.29,1.93 33.76,0 61.23,-27.47 61.23,-61.23 h -15.52 c 0,25.2 -20.5,45.71 -45.71,45.71 -25.21,0 -45.71,-20.5 -45.71,-45.71 H 61.62 c 0,22.99 12.74,43.05 31.53,53.52 z"/><path id="path2993" d="m 148.17,30.34 c -12.04,0 -22.5,6.71 -27.88,16.59 4.14,3.86 7.27,8.79 8.89,14.38 14.01,-3.14 24.53,-15.53 24.77,-30.43 -1.87,-0.35 -3.8,-0.53 -5.78,-0.53 z" class="c" style="fill:#00641e"/><path id="path2995" d="m 98.68,38.42 c -2.38,0 -4.7,0.27 -6.94,0.77 3.83,13.23 16.03,22.91 30.5,22.91 2.38,0 4.7,-0.27 6.94,-0.77 C 125.35,48.1 113.15,38.42 98.68,38.42 Z" class="d" style="fill:#00961e"/></g></g></svg>