<svg xmlns="http://www.w3.org/2000/svg" xmlns:svg="http://www.w3.org/2000/svg" id="svg20" width="1152" height="1152" fill="none" version="1.1" viewBox="0 0 127.999 127.999"><rect id="rect2" width="128" height="128" x="0" y="0"/><path id="path4" fill="#ff8c14" d="M 29,65.5706 C 29,46.2392 44.6612,30.578 63.9926,30.578 c 19.3313,0 34.9925,15.6612 34.9925,34.9926 z"/><path id="path6" d="m 90.1144,65.5706 c 0,14.4279 -11.6939,26.1218 -26.1218,26.1218 -14.428,0 -26.1219,-11.6939 -26.1219,-26.1218 z"/><path id="path8" fill="#8c3c00" d="m 75.85,44.9019 c 1.0668,0 1.9316,-0.8648 1.9316,-1.9316 0,-1.0669 -0.8648,-1.9317 -1.9316,-1.9317 -1.0669,0 -1.9317,0.8648 -1.9317,1.9317 0,1.0668 0.8648,1.9316 1.9317,1.9316 z"/><path id="path10" fill="#8c3c00" d="m 85.211,53.5052 c 1.0668,0 1.9317,-0.8648 1.9317,-1.9316 0,-1.0669 -0.8649,-1.9317 -1.9317,-1.9317 -1.0668,0 -1.9316,0.8648 -1.9316,1.9317 0,1.0668 0.8648,1.9316 1.9316,1.9316 z"/><path id="path12" fill="#8c3c00" d="m 74.6166,55.6152 c 1.0669,0 1.9317,-0.8649 1.9317,-1.9317 0,-1.0668 -0.8648,-1.9316 -1.9317,-1.9316 -1.0668,0 -1.9316,0.8648 -1.9316,1.9316 0,1.0668 0.8648,1.9317 1.9316,1.9317 z"/><path id="path14" fill="#000" d="M 47.0238,96.1501 40.8128,110.994 49,114.426 55.2704,99.4636 c 2.7935,0.7134 5.7207,1.0994 8.737,1.0994 C 83.3091,100.563 99,84.8722 99,65.5706 h -8.8707 c 0,14.3982 -11.7237,26.1218 -26.1219,26.1218 -14.3982,0 -26.1367,-11.7236 -26.1367,-26.1218 H 29 c 0,13.1352 7.2808,24.6062 18.0238,30.5795 z"/><path id="path16" fill="#00641e" d="m 78.4651,13 c -6.8797,0 -12.8529,3.8336 -15.9287,9.4799 2.3626,2.1991 4.1605,5.0223 5.0817,8.217 C 75.627,28.899 81.63,21.8262 81.7786,13.312 80.7088,13.1189 79.6092,13 78.4799,13 Z"/><path id="path18" fill="#00961e" d="m 50.1887,17.6211 c -1.367,0 -2.6894,0.1486 -3.9673,0.4458 2.1843,7.5631 9.1679,13.0906 17.4294,13.0906 1.367,0 2.6895,-0.1486 3.9673,-0.4458 C 65.4339,23.1486 58.4502,17.6211 50.1887,17.6211 Z"/><path id="path45" fill="#ff8c14" d="M 29,65.5706 C 29,46.2392 44.6612,30.578 63.9926,30.578 c 19.3313,0 34.9925,15.6612 34.9925,34.9926 z"/><path id="path47" d="m 90.1144,65.5706 c 0,14.4279 -11.6939,26.1218 -26.1218,26.1218 -14.428,0 -26.1219,-11.6939 -26.1219,-26.1218 z"/><path id="path49" fill="#8c3c00" d="m 75.85,44.9019 c 1.0668,0 1.9316,-0.8648 1.9316,-1.9316 0,-1.0669 -0.8648,-1.9317 -1.9316,-1.9317 -1.0669,0 -1.9317,0.8648 -1.9317,1.9317 0,1.0668 0.8648,1.9316 1.9317,1.9316 z"/><path id="path51" fill="#8c3c00" d="m 85.211,53.5052 c 1.0668,0 1.9317,-0.8648 1.9317,-1.9316 0,-1.0669 -0.8649,-1.9317 -1.9317,-1.9317 -1.0668,0 -1.9316,0.8648 -1.9316,1.9317 0,1.0668 0.8648,1.9316 1.9316,1.9316 z"/><path id="path53" fill="#8c3c00" d="m 74.6166,55.6152 c 1.0669,0 1.9317,-0.8649 1.9317,-1.9317 0,-1.0668 -0.8648,-1.9316 -1.9317,-1.9316 -1.0668,0 -1.9316,0.8648 -1.9316,1.9316 0,1.0668 0.8648,1.9317 1.9316,1.9317 z"/><path id="path55" fill="#000" d="M 47.0238,96.1501 40.8128,110.994 49,114.426 55.2704,99.4636 c 2.7935,0.7134 5.7207,1.0994 8.737,1.0994 C 83.3091,100.563 99,84.8722 99,65.5706 h -8.8707 c 0,14.3982 -11.7237,26.1218 -26.1219,26.1218 -14.3982,0 -26.1367,-11.7236 -26.1367,-26.1218 H 29 c 0,13.1352 7.2808,24.6062 18.0238,30.5795 z"/><path id="path57" fill="#00641e" d="m 78.4651,13 c -6.8797,0 -12.8529,3.8336 -15.9287,9.4799 2.3626,2.1991 4.1605,5.0223 5.0817,8.217 C 75.627,28.899 81.63,21.8262 81.7786,13.312 80.7088,13.1189 79.6092,13 78.4799,13 Z"/><path id="path59" fill="#00961e" d="m 50.1887,17.6211 c -1.367,0 -2.6894,0.1486 -3.9673,0.4458 2.1843,7.5631 9.1679,13.0906 17.4294,13.0906 1.367,0 2.6895,-0.1486 3.9673,-0.4458 C 65.4339,23.1486 58.4502,17.6211 50.1887,17.6211 Z"/></svg>