<svg xmlns="http://www.w3.org/2000/svg" xmlns:svg="http://www.w3.org/2000/svg" id="svg20" width="1152" height="1152" fill="none" version="1.1" viewBox="0 0 166.395 166.395"><rect id="rect2" width="128" height="128" x="0" y="0"/><path id="path4" fill="#ff8c14" d="m 48.19744,85.05504 c 0,-19.3314 15.6612,-34.9926 34.9926,-34.9926 19.3313,0 34.9925,15.6612 34.9925,34.9926 z"/><path id="path6" d="m 109.31184,85.05504 c 0,14.4279 -11.6939,26.1218 -26.1218,26.1218 -14.428,0 -26.1219,-11.6939 -26.1219,-26.1218 z"/><path id="path8" fill="#8c3c00" d="m 95.04744,64.38634 c 1.0668,0 1.9316,-0.8648 1.9316,-1.9316 0,-1.0669 -0.8648,-1.9317 -1.9316,-1.9317 -1.0669,0 -1.9317,0.8648 -1.9317,1.9317 0,1.0668 0.8648,1.9316 1.9317,1.9316 z"/><path id="path10" fill="#8c3c00" d="m 104.40844,72.98964 c 1.0668,0 1.9317,-0.8648 1.9317,-1.9316 0,-1.0669 -0.8649,-1.9317 -1.9317,-1.9317 -1.0668,0 -1.9316,0.8648 -1.9316,1.9317 0,1.0668 0.8648,1.9316 1.9316,1.9316 z"/><path id="path12" fill="#8c3c00" d="m 93.81404,75.09964 c 1.0669,0 1.9317,-0.8649 1.9317,-1.9317 0,-1.0668 -0.8648,-1.9316 -1.9317,-1.9316 -1.0668,0 -1.9316,0.8648 -1.9316,1.9316 0,1.0668 0.8648,1.9317 1.9316,1.9317 z"/><path id="path14" fill="#000" d="m 66.22124,115.63454 -6.211,14.8439 8.1872,3.432 6.2704,-14.9624 c 2.7935,0.7134 5.7207,1.0994 8.737,1.0994 19.3017,0 34.9926,-15.6908 34.9926,-34.9924 h -8.8707 c 0,14.3982 -11.7237,26.1218 -26.1219,26.1218 -14.3982,0 -26.1367,-11.7236 -26.1367,-26.1218 h -8.8707 c 0,13.1352 7.2808,24.6062 18.0238,30.5795 z"/><path id="path16" fill="#00641e" d="m 97.66254,32.48444 c -6.8797,0 -12.8529,3.8336 -15.9287,9.4799 2.3626,2.1991 4.1605,5.0223 5.0817,8.217 8.0089,-1.7979 14.0119,-8.8707 14.1605,-17.3849 -1.0698,-0.1931 -2.1694,-0.312 -3.2987,-0.312 z"/><path id="path18" fill="#00961e" d="m 69.38614,37.10554 c -1.367,0 -2.6894,0.1486 -3.9673,0.4458 2.1843,7.5631 9.1679,13.0906 17.4294,13.0906 1.367,0 2.6895,-0.1486 3.9673,-0.4458 -2.1842,-7.5631 -9.1679,-13.0906 -17.4294,-13.0906 z"/><path id="path45" fill="#ff8c14" d="m 48.19744,85.05504 c 0,-19.3314 15.6612,-34.9926 34.9926,-34.9926 19.3313,0 34.9925,15.6612 34.9925,34.9926 z"/><path id="path47" d="m 109.31184,85.05504 c 0,14.4279 -11.6939,26.1218 -26.1218,26.1218 -14.428,0 -26.1219,-11.6939 -26.1219,-26.1218 z"/><path id="path49" fill="#8c3c00" d="m 95.04744,64.38634 c 1.0668,0 1.9316,-0.8648 1.9316,-1.9316 0,-1.0669 -0.8648,-1.9317 -1.9316,-1.9317 -1.0669,0 -1.9317,0.8648 -1.9317,1.9317 0,1.0668 0.8648,1.9316 1.9317,1.9316 z"/><path id="path51" fill="#8c3c00" d="m 104.40844,72.98964 c 1.0668,0 1.9317,-0.8648 1.9317,-1.9316 0,-1.0669 -0.8649,-1.9317 -1.9317,-1.9317 -1.0668,0 -1.9316,0.8648 -1.9316,1.9317 0,1.0668 0.8648,1.9316 1.9316,1.9316 z"/><path id="path53" fill="#8c3c00" d="m 93.81404,75.09964 c 1.0669,0 1.9317,-0.8649 1.9317,-1.9317 0,-1.0668 -0.8648,-1.9316 -1.9317,-1.9316 -1.0668,0 -1.9316,0.8648 -1.9316,1.9316 0,1.0668 0.8648,1.9317 1.9316,1.9317 z"/><path id="path55" fill="#000" d="m 66.22124,115.63454 -6.211,14.8439 8.1872,3.432 6.2704,-14.9624 c 2.7935,0.7134 5.7207,1.0994 8.737,1.0994 19.3017,0 34.9926,-15.6908 34.9926,-34.9924 h -8.8707 c 0,14.3982 -11.7237,26.1218 -26.1219,26.1218 -14.3982,0 -26.1367,-11.7236 -26.1367,-26.1218 h -8.8707 c 0,13.1352 7.2808,24.6062 18.0238,30.5795 z"/><path id="path57" fill="#00641e" d="m 97.66254,32.48444 c -6.8797,0 -12.8529,3.8336 -15.9287,9.4799 2.3626,2.1991 4.1605,5.0223 5.0817,8.217 8.0089,-1.7979 14.0119,-8.8707 14.1605,-17.3849 -1.0698,-0.1931 -2.1694,-0.312 -3.2987,-0.312 z"/><path id="path59" fill="#00961e" d="m 69.38614,37.10554 c -1.367,0 -2.6894,0.1486 -3.9673,0.4458 2.1843,7.5631 9.1679,13.0906 17.4294,13.0906 1.367,0 2.6895,-0.1486 3.9673,-0.4458 -2.1842,-7.5631 -9.1679,-13.0906 -17.4294,-13.0906 z"/></svg>